# xmcd
#
# Track frame offsets: 
#        150
#        54685
#        67187
#        81366
#        112849
#        126265
#        144389
#        146322
#        158918
#        173448
#        191143
#        237535
#
# Disc length: 3435 seconds
#
# Revision: 0
# Processed by: cddbd v1.5.1PL2 Copyright (c) Steve Scherf et al.
# Submitted via: ExactAudioCopy v0.95b3
#
DISCID=ab0d690c
DTITLE=The Texas The Band Show - Chock Full 'O Nuts
DYEAR=1900
DGENRE=Country
TTITLE0=Opening Medley
TTITLE1=Pretty Woman
TTITLE2=Right Field
TTITLE3=50's Medley
TTITLE4=7 Bridges Road
TTITLE5=Michael Jackson Meets Walter T. Airdale
TTITLE6=Zombie Jamboree Outtake
TTITLE7=Zombie Jamboree
TTITLE8=Lucky Guy
TTITLE9=Beatles Barber Shop
TTITLE10=70's Medley
TTITLE11=The Star Spangled Banner
EXTD=
EXTT0=
EXTT1=
EXTT2=
EXTT3=
EXTT4=
EXTT5=
EXTT6=
EXTT7=
EXTT8=
EXTT9=
EXTT10=
EXTT11=
PLAYORDER=
